<svg width="94" height="92" viewBox="0 0 94 92" fill="none" xmlns="http://www.w3.org/2000/svg">
<path d="M18.1319 21.1417C19.3456 19.418 18.9837 16.5998 17.34 14.7358C16.945 14.288 16.8613 13.557 17.1598 13.1381C17.4515 12.7237 18.024 12.7656 18.4172 13.2136C18.8162 13.6646 18.9013 14.3625 18.5937 14.7971C19.3478 15.6385 20.1047 16.4723 20.8649 17.3038C21.8787 15.8772 21.8317 13.7801 20.9309 12.0507C21.1357 11.764 21.3369 11.4778 21.5451 11.1888C20.8732 10.4362 20.2062 9.67933 19.5427 8.9202C19.3288 9.22262 19.1118 9.52909 18.8986 9.83692C17.4903 9.01851 15.9221 9.21519 14.9827 10.5467C14.4565 11.2899 14.2072 12.2317 14.2244 13.2434C14.2428 14.5955 14.7406 16.0373 15.6766 17.0945C16.07 17.5443 16.1553 18.244 15.8602 18.6606C15.5635 19.0793 14.993 19.0683 14.596 18.6189C14.1992 18.1713 14.1172 17.4383 14.4084 17.0203C13.6735 16.1711 12.9415 15.316 12.2159 14.4528C11.2826 15.7744 11.2552 17.8312 12.0357 19.535C11.7845 19.8914 11.5291 20.2428 11.2799 20.6008C11.9421 21.3637 12.6052 22.1192 13.2768 22.8701C13.514 22.5249 13.756 22.183 14.0028 21.8445C15.4732 22.767 17.1536 22.5146 18.1319 21.1417" fill="#8C8C8C" fill-opacity="0.15"/>
<path d="M53.5951 48.5033C53.7382 49.6773 54.4451 50.8374 55.6027 51.5802C56.0934 51.8974 56.2513 52.4876 55.9562 52.9042C55.6616 53.3244 55.0146 53.4216 54.5241 53.1062C54.0316 52.7893 53.8717 52.1682 54.165 51.7518C53.2479 51.1499 52.3374 50.5416 51.4318 49.9291C50.4965 51.2492 50.6621 53.0427 51.7065 54.3739L50.9527 55.4413C51.7744 55.9817 52.5968 56.5128 53.4258 57.0376L54.1484 56.0143C55.8992 56.5348 57.7792 55.9981 58.7525 54.6295C59.9694 52.9018 59.2961 50.5315 57.2698 49.2229C56.7773 48.906 56.6174 48.2849 56.9107 47.8685C57.2074 47.4498 57.8584 47.3851 58.3484 47.6969C58.838 48.0197 59.0009 48.6056 58.6967 49.038C59.6217 49.6298 60.5567 50.2131 61.4921 50.7854C62.5036 49.3553 62.2619 47.5529 61.0803 46.2218L61.692 45.3548C60.8633 44.8318 60.0386 44.2973 59.2189 43.7585C59.0037 44.0647 58.7849 44.3714 58.573 44.6754C56.899 44.2298 55.1392 44.6859 54.2002 46.0211C53.6707 46.7664 53.4736 47.6268 53.5951 48.5033Z" fill="#8C8C8C" fill-opacity="0.15"/>
<path d="M39.3371 80.5719C41.2508 81.7927 43.1973 82.9615 45.1743 84.0769C49.5997 82.9682 54.0655 81.7997 58.5547 80.568L58.7355 80.3098L60.0834 81.0075L61.7571 78.6439C70.0233 66.9611 78.2882 55.2821 86.5508 43.5998L88.7864 40.4411L85.3546 38.667C79.5326 35.6412 73.8835 32.2937 68.4335 28.6401C69.4501 28.7523 70.5 28.8823 71.5924 29.031C76.05 29.6424 78.8197 27.9522 80.3557 26.4253C83.2209 23.5816 84.3993 18.7162 83.6683 12.7202C81.5957 -4.28145 65.2272 -27.2488 41.0538 -24.3018C37.7357 -23.8972 35.6861 -21.4037 36.0717 -18.2406C36.3564 -15.9054 37.9909 -13.3668 40.948 -10.6527C40.0036 -10.2484 39.1308 -9.7064 38.421 -8.98299C37.0599 -7.59819 36.4444 -5.72599 36.6902 -3.70988C36.7454 -3.25725 36.8418 -2.79683 36.983 -2.32907C35.9687 -1.98762 34.9869 -1.46897 34.1653 -0.731935C29.224 -6.08072 24.5845 -11.7008 20.2686 -17.5659L17.5356 -21.2937L15.0252 -17.7465C14.5417 -18.3501 14.0562 -18.9552 13.5837 -19.5583C10.1632 -19.8734 6.78098 -20.2352 3.45341 -20.6439C-5.62658 -7.81507 -14.6978 5.01087 -23.7762 17.8377C-17.0805 27.2256 -9.84328 36.2153 -2.10129 44.7608C-2.10626 44.7651 -2.11347 44.766 -2.11664 44.77C-3.52005 45.8232 -4.37875 47.3664 -4.69243 49.372C-8.97688 46.4885 -12.4439 45.6868 -15.0355 46.991C-17.0993 48.0314 -18.1449 50.1884 -17.831 52.7636C-14.8662 77.0831 11.2228 87.5516 28.1235 85.4912C32.1539 84.9999 35.5292 83.774 37.8814 81.9463C38.4061 81.5319 38.8933 81.072 39.3371 80.5719V80.5719ZM61.7698 28.1128C68.8346 33.1464 76.1884 37.6981 83.8331 41.6489C75.5687 53.3315 67.3059 65.0121 59.0377 76.6933C52.1319 73.1051 45.4632 69.0778 39.0726 64.6364C38.5179 63.013 38.0212 61.4758 37.6109 60.0618C43.0146 63.9746 48.5752 67.6286 54.3348 70.9033L55.1606 69.7357C56.0738 68.4439 57.9414 68.046 59.3413 68.8106C59.7683 69.0404 60.1901 69.2726 60.6134 69.5028C66.1206 61.7141 71.6333 53.9266 77.1411 46.1433L75.869 45.451C74.4724 44.6842 74.0844 42.9875 74.9982 41.7011L75.8202 40.5321C69.2483 36.7946 62.9196 32.5901 56.8148 28.0306C58.3018 28.0086 59.946 28.0296 61.7698 28.1128ZM45.6407 42.9723C48.5354 38.8842 48.6626 33.6382 46.5821 29.2122C47.4723 28.9628 49.3503 28.5307 52.3551 28.2577C58.5577 33.0845 65.0611 37.5119 71.8257 41.5132C71.1153 43.4171 71.5823 45.5216 73.0579 46.9375L59.6277 65.9207C57.5496 65.3578 55.2507 65.8357 53.6394 67.2107C47.7184 63.7233 42.0032 59.8521 36.4687 55.6916C36.0025 53.7204 35.6402 51.7261 35.3834 49.7168C35.3133 49.1416 35.2657 48.6313 35.2277 48.1546C39.1874 48.3289 43.1477 46.4972 45.6407 42.9723V42.9723ZM40.0881 -3.73064C40.0618 -3.85555 40.0176 -3.99291 40.0031 -4.11193C39.5118 -8.14234 45.336 -8.45157 48.185 -8.36516C50.6705 -6.41164 53.2374 -4.60164 55.6893 -2.68427C58.3181 -0.66587 60.8351 1.48513 62.9381 3.99406C65.0265 6.50294 66.6496 9.44371 67.3685 12.7583C67.3065 9.3673 66.0069 5.97347 63.9696 3.19299C61.9583 0.370913 59.368 -1.93219 56.7019 -4.0156C54.0125 -6.0797 51.2099 -7.93234 48.4467 -9.80626C45.714 -11.7004 42.9752 -13.5699 40.6145 -15.9706C39.8693 -17.0089 39.4759 -17.909 39.386 -18.6465C39.2222 -19.99 40.0422 -20.8 41.4614 -20.9731C64.0696 -23.7292 78.5558 -1.65433 80.357 13.1202C81.3023 20.8745 78.749 26.6212 72.0369 25.6972C52.5355 23.0272 44.665 26.3073 44.665 26.3073C40.7939 24.8027 39.1551 21.1922 39.1551 21.1922C39.4573 19.0789 39.476 16.9348 39.2105 14.8166C38.693 10.5716 37.2738 7.69746 37.2738 7.69746C36.1823 6.22003 35.6703 5.03796 35.5549 4.09122C35.1372 0.664919 39.9441 0.342452 41.621 0.332008C41.889 0.758698 42.1734 1.17057 42.474 1.56401C43.6585 3.14358 45.0676 4.49444 46.4471 5.81232C47.8461 7.10952 49.2384 8.36728 50.493 9.72601C51.732 11.0921 52.8081 12.5934 53.3941 14.4582C53.4212 13.9653 53.3934 13.4709 53.3114 12.9841C53.0653 11.5207 52.3659 10.1071 51.5113 8.90642C50.3727 7.26818 48.9656 5.90426 47.5838 4.58299C46.1756 3.28509 44.7711 2.03248 43.4588 0.710073C42.1633 -0.6089 40.9844 -2.02261 40.0881 -3.73064ZM7.55594 37.2824C2.2955 31.6334 -2.63485 25.6859 -7.21054 19.4692C1.0577 7.78802 9.31533 -3.89008 17.5851 -15.5733C22.17 -9.34273 27.1111 -3.38234 32.3837 2.27802C32.2155 2.98482 32.145 3.7273 32.2389 4.49732C32.3351 5.28717 32.5731 6.09818 32.9464 6.93845C28.5696 2.41143 24.4144 -2.32471 20.4954 -7.25337C20.2189 -6.86462 19.9428 -6.47225 19.6642 -6.08508C18.7541 -4.79919 17.1743 -4.80241 16.167 -6.11443C15.8618 -6.51644 15.5552 -6.91464 15.254 -7.31349L-1.27708 16.0483C-0.971857 16.4503 -0.670895 16.8474 -0.358675 17.2467C0.647034 18.5607 0.745866 20.6625 -0.164108 21.9502L-0.995299 23.1185C3.04822 28.1957 7.34186 33.0686 11.8697 37.7192C10.266 37.2192 8.82473 37.0765 7.55594 37.2824V37.2824ZM16.4651 38.3796C11.5169 33.495 6.83052 28.352 2.42566 22.9723C3.24132 20.9109 3.10407 18.3289 2.10702 16.2452L15.537 -2.73976C17.1354 -1.50346 19.1001 -1.51055 20.6024 -2.72773C25.307 3.02613 30.3315 8.51079 35.6521 13.7003C35.7457 14.183 35.8307 14.6851 35.8962 15.2225C36.1246 17.0434 36.1099 18.8865 35.8525 20.7035L35.8053 21.0222C31.9643 20.5901 28.159 22.1319 25.6377 25.6951C23.3244 28.9675 22.601 33.2412 23.3987 37.2031C20.8238 38.1045 18.371 38.3706 16.4651 38.3796V38.3796ZM-14.5185 52.3579C-14.7887 50.1417 -13.2164 48.9873 -9.86224 50.35C-6.99611 52.0777 -4.54066 54.2948 -2.07031 56.4991C0.39991 58.7473 2.86437 61.0383 5.49988 63.1712C8.14969 65.2712 10.9916 67.2508 14.1991 68.5362C17.3707 69.857 20.9584 70.3128 24.2449 69.5589C20.8741 69.6514 17.6453 68.7767 14.721 67.3379C11.797 65.8862 9.11702 63.9436 6.53723 61.8625C4.10166 59.9285 1.73905 57.8575 -0.741295 55.9015C-0.975779 55.0589 -1.24007 53.9419 -1.38209 52.7769C-1.71911 50.0124 -1.35529 47.0069 1.74816 46.8683C3.62736 47.331 5.28624 48.1482 6.88274 49.0992C8.47357 50.0637 10.0188 51.1345 11.6089 52.1979C13.2173 53.2317 14.8712 54.2782 16.7228 54.995C18.5408 55.7213 20.6576 56.091 22.531 55.5002C20.5908 55.3781 18.8833 54.6876 17.2679 53.8066C15.6559 52.9088 14.1068 51.8513 12.5174 50.7933C10.9132 49.7645 9.2713 48.711 7.46381 47.9358C7.00887 47.7347 6.54429 47.5562 6.07177 47.4009C5.94237 46.8564 5.8422 46.3053 5.77169 45.7501C5.42829 42.9333 5.82955 38.7337 12.1353 41.3836C12.1353 41.3836 18.6578 42.8395 25.6057 39.9794C25.6057 39.9794 29.4833 40.7109 31.8654 44.1283C31.8654 44.1283 31.5736 46.0727 32.0671 50.1211C32.604 54.5248 34.0704 61.4194 37.8549 71.0109C38.1518 71.7441 38.3543 72.5121 38.4575 73.2964C40.3895 89.144 -10.4745 85.5299 -14.5185 52.3579" fill="#8C8C8C" fill-opacity="0.15"/>
</svg>
